<svg xmlns="http://www.w3.org/2000/svg" width="1080" height="520" viewBox="0 0 1080 520" role="img" aria-labelledby="title desc">
<title id="title">First dirty propagation pays for depth</title>
<desc id="desc">Line chart for First dirty propagation pays for depth</desc>
<rect width="100%" height="100%" fill="#ffffff"/>
<text x="84" y="30" font-family="Arial, sans-serif" font-size="20" font-weight="700" fill="#111827">First dirty propagation pays for depth</text>
<text x="84" y="50" font-family="Arial, sans-serif" font-size="12" fill="#475569">Native probe sample, lower is better</text>
<line x1="84" y1="440.0" x2="740" y2="440.0" stroke="#e5e7eb" stroke-width="1"/>
<text x="74" y="444.0" text-anchor="end" font-family="Arial, sans-serif" font-size="11" fill="#64748b">0</text>
<line x1="84" y1="362.8" x2="740" y2="362.8" stroke="#e5e7eb" stroke-width="1"/>
<text x="74" y="366.8" text-anchor="end" font-family="Arial, sans-serif" font-size="11" fill="#64748b">4k</text>
<line x1="84" y1="285.6" x2="740" y2="285.6" stroke="#e5e7eb" stroke-width="1"/>
<text x="74" y="289.6" text-anchor="end" font-family="Arial, sans-serif" font-size="11" fill="#64748b">7k</text>
<line x1="84" y1="208.4" x2="740" y2="208.4" stroke="#e5e7eb" stroke-width="1"/>
<text x="74" y="212.4" text-anchor="end" font-family="Arial, sans-serif" font-size="11" fill="#64748b">11k</text>
<line x1="84" y1="131.2" x2="740" y2="131.2" stroke="#e5e7eb" stroke-width="1"/>
<text x="74" y="135.2" text-anchor="end" font-family="Arial, sans-serif" font-size="11" fill="#64748b">15k</text>
<line x1="84" y1="54.0" x2="740" y2="54.0" stroke="#e5e7eb" stroke-width="1"/>
<text x="74" y="58.0" text-anchor="end" font-family="Arial, sans-serif" font-size="11" fill="#64748b">19k</text>
<line x1="84.0" y1="440" x2="84.0" y2="445" stroke="#94a3b8" stroke-width="1"/>
<text x="84.0" y="464" text-anchor="middle" font-family="Arial, sans-serif" font-size="12" fill="#475569">1k</text>
<line x1="109.2" y1="440" x2="109.2" y2="445" stroke="#94a3b8" stroke-width="1"/>
<text x="109.2" y="464" text-anchor="middle" font-family="Arial, sans-serif" font-size="12" fill="#475569">2k</text>
<line x1="151.3" y1="440" x2="151.3" y2="445" stroke="#94a3b8" stroke-width="1"/>
<text x="151.3" y="464" text-anchor="middle" font-family="Arial, sans-serif" font-size="12" fill="#475569">5k</text>
<line x1="235.4" y1="440" x2="235.4" y2="445" stroke="#94a3b8" stroke-width="1"/>
<text x="235.4" y="464" text-anchor="middle" font-family="Arial, sans-serif" font-size="12" fill="#475569">10k</text>
<line x1="403.6" y1="440" x2="403.6" y2="445" stroke="#94a3b8" stroke-width="1"/>
<text x="403.6" y="464" text-anchor="middle" font-family="Arial, sans-serif" font-size="12" fill="#475569">20k</text>
<line x1="740.0" y1="440" x2="740.0" y2="445" stroke="#94a3b8" stroke-width="1"/>
<text x="740.0" y="464" text-anchor="middle" font-family="Arial, sans-serif" font-size="12" fill="#475569">40k</text>
<line x1="84" y1="54" x2="84" y2="440" stroke="#334155" stroke-width="1.2"/>
<line x1="84" y1="440" x2="740" y2="440" stroke="#334155" stroke-width="1.2"/>
<text x="412.0" y="496" text-anchor="middle" font-family="Arial, sans-serif" font-size="13" fill="#334155">dropped derived graphs (n)</text>
<text transform="translate(22 247.0) rotate(-90)" text-anchor="middle" font-family="Arial, sans-serif" font-size="13" fill="#334155">first dirty us</text>
<path d="M84.0,438.2 L109.2,434.5 L151.3,431.4 L235.4,423.6 L403.6,406.4 L740.0,369.8" fill="none" stroke="#2563eb" stroke-width="2.6" stroke-linecap="round" stroke-linejoin="round"/>
<circle cx="84.0" cy="438.2" r="4" fill="#ffffff" stroke="#2563eb" stroke-width="2"/>
<circle cx="109.2" cy="434.5" r="4" fill="#ffffff" stroke="#2563eb" stroke-width="2"/>
<circle cx="151.3" cy="431.4" r="4" fill="#ffffff" stroke="#2563eb" stroke-width="2"/>
<circle cx="235.4" cy="423.6" r="4" fill="#ffffff" stroke="#2563eb" stroke-width="2"/>
<circle cx="403.6" cy="406.4" r="4" fill="#ffffff" stroke="#2563eb" stroke-width="2"/>
<circle cx="740.0" cy="369.8" r="4" fill="#ffffff" stroke="#2563eb" stroke-width="2"/>
<line x1="774" y1="72" x2="796" y2="72" stroke="#2563eb" stroke-width="3"/>
<text x="804" y="76" font-family="Arial, sans-serif" font-size="12" fill="#334155">map_fanout</text>
<path d="M84.0,434.3 L109.2,425.7 L151.3,410.3 L235.4,357.7 L403.6,305.7 L740.0,82.6" fill="none" stroke="#7c3aed" stroke-width="2.6" stroke-linecap="round" stroke-linejoin="round"/>
<circle cx="84.0" cy="434.3" r="4" fill="#ffffff" stroke="#7c3aed" stroke-width="2"/>
<circle cx="109.2" cy="425.7" r="4" fill="#ffffff" stroke="#7c3aed" stroke-width="2"/>
<circle cx="151.3" cy="410.3" r="4" fill="#ffffff" stroke="#7c3aed" stroke-width="2"/>
<circle cx="235.4" cy="357.7" r="4" fill="#ffffff" stroke="#7c3aed" stroke-width="2"/>
<circle cx="403.6" cy="305.7" r="4" fill="#ffffff" stroke="#7c3aed" stroke-width="2"/>
<circle cx="740.0" cy="82.6" r="4" fill="#ffffff" stroke="#7c3aed" stroke-width="2"/>
<line x1="774" y1="96" x2="796" y2="96" stroke="#7c3aed" stroke-width="3"/>
<text x="804" y="100" font-family="Arial, sans-serif" font-size="12" fill="#334155">chain_depth4</text>
<path d="M84.0,438.3 L109.2,435.7 L151.3,432.0 L235.4,422.1 L403.6,400.8 L740.0,372.7" fill="none" stroke="#059669" stroke-width="2.6" stroke-linecap="round" stroke-linejoin="round"/>
<circle cx="84.0" cy="438.3" r="4" fill="#ffffff" stroke="#059669" stroke-width="2"/>
<circle cx="109.2" cy="435.7" r="4" fill="#ffffff" stroke="#059669" stroke-width="2"/>
<circle cx="151.3" cy="432.0" r="4" fill="#ffffff" stroke="#059669" stroke-width="2"/>
<circle cx="235.4" cy="422.1" r="4" fill="#ffffff" stroke="#059669" stroke-width="2"/>
<circle cx="403.6" cy="400.8" r="4" fill="#ffffff" stroke="#059669" stroke-width="2"/>
<circle cx="740.0" cy="372.7" r="4" fill="#ffffff" stroke="#059669" stroke-width="2"/>
<line x1="774" y1="120" x2="796" y2="120" stroke="#059669" stroke-width="3"/>
<text x="804" y="124" font-family="Arial, sans-serif" font-size="12" fill="#334155">map12</text>
<path d="M84.0,437.2 L109.2,432.2 L151.3,421.9 L235.4,409.6 L403.6,377.4 L740.0,295.1" fill="none" stroke="#0891b2" stroke-width="2.6" stroke-linecap="round" stroke-linejoin="round"/>
<circle cx="84.0" cy="437.2" r="4" fill="#ffffff" stroke="#0891b2" stroke-width="2"/>
<circle cx="109.2" cy="432.2" r="4" fill="#ffffff" stroke="#0891b2" stroke-width="2"/>
<circle cx="151.3" cy="421.9" r="4" fill="#ffffff" stroke="#0891b2" stroke-width="2"/>
<circle cx="235.4" cy="409.6" r="4" fill="#ffffff" stroke="#0891b2" stroke-width="2"/>
<circle cx="403.6" cy="377.4" r="4" fill="#ffffff" stroke="#0891b2" stroke-width="2"/>
<circle cx="740.0" cy="295.1" r="4" fill="#ffffff" stroke="#0891b2" stroke-width="2"/>
<line x1="774" y1="144" x2="796" y2="144" stroke="#0891b2" stroke-width="3"/>
<text x="804" y="148" font-family="Arial, sans-serif" font-size="12" fill="#334155">zip12</text>
<path d="M84.0,438.3 L109.2,435.9 L151.3,432.1 L235.4,421.9 L403.6,407.8 L740.0,375.3" fill="none" stroke="#d97706" stroke-width="2.6" stroke-linecap="round" stroke-linejoin="round"/>
<circle cx="84.0" cy="438.3" r="4" fill="#ffffff" stroke="#d97706" stroke-width="2"/>
<circle cx="109.2" cy="435.9" r="4" fill="#ffffff" stroke="#d97706" stroke-width="2"/>
<circle cx="151.3" cy="432.1" r="4" fill="#ffffff" stroke="#d97706" stroke-width="2"/>
<circle cx="235.4" cy="421.9" r="4" fill="#ffffff" stroke="#d97706" stroke-width="2"/>
<circle cx="403.6" cy="407.8" r="4" fill="#ffffff" stroke="#d97706" stroke-width="2"/>
<circle cx="740.0" cy="375.3" r="4" fill="#ffffff" stroke="#d97706" stroke-width="2"/>
<line x1="774" y1="168" x2="796" y2="168" stroke="#d97706" stroke-width="3"/>
<text x="804" y="172" font-family="Arial, sans-serif" font-size="12" fill="#334155">bind_branch</text>
<path d="M84.0,436.4 L109.2,432.1 L151.3,423.6 L235.4,399.3 L403.6,367.4 L740.0,285.3" fill="none" stroke="#db2777" stroke-width="2.6" stroke-linecap="round" stroke-linejoin="round"/>
<circle cx="84.0" cy="436.4" r="4" fill="#ffffff" stroke="#db2777" stroke-width="2"/>
<circle cx="109.2" cy="432.1" r="4" fill="#ffffff" stroke="#db2777" stroke-width="2"/>
<circle cx="151.3" cy="423.6" r="4" fill="#ffffff" stroke="#db2777" stroke-width="2"/>
<circle cx="235.4" cy="399.3" r="4" fill="#ffffff" stroke="#db2777" stroke-width="2"/>
<circle cx="403.6" cy="367.4" r="4" fill="#ffffff" stroke="#db2777" stroke-width="2"/>
<circle cx="740.0" cy="285.3" r="4" fill="#ffffff" stroke="#db2777" stroke-width="2"/>
<line x1="774" y1="192" x2="796" y2="192" stroke="#db2777" stroke-width="3"/>
<text x="804" y="196" font-family="Arial, sans-serif" font-size="12" fill="#334155">bind_live_root_subgraph</text>
<path d="M84.0,439.9 L109.2,439.9 L151.3,439.9 L235.4,439.9 L403.6,439.9 L740.0,439.9" fill="none" stroke="#111827" stroke-width="2.6" stroke-linecap="round" stroke-linejoin="round"/>
<circle cx="84.0" cy="439.9" r="4" fill="#ffffff" stroke="#111827" stroke-width="2"/>
<circle cx="109.2" cy="439.9" r="4" fill="#ffffff" stroke="#111827" stroke-width="2"/>
<circle cx="151.3" cy="439.9" r="4" fill="#ffffff" stroke="#111827" stroke-width="2"/>
<circle cx="235.4" cy="439.9" r="4" fill="#ffffff" stroke="#111827" stroke-width="2"/>
<circle cx="403.6" cy="439.9" r="4" fill="#ffffff" stroke="#111827" stroke-width="2"/>
<circle cx="740.0" cy="439.9" r="4" fill="#ffffff" stroke="#111827" stroke-width="2"/>
<line x1="774" y1="216" x2="796" y2="216" stroke="#111827" stroke-width="3"/>
<text x="804" y="220" font-family="Arial, sans-serif" font-size="12" fill="#334155">bind_live_local_subgraph</text>
<text x="84" y="512" font-family="Arial, sans-serif" font-size="11" fill="#64748b">chain_depth4 and zip12 pay more on the first dirty because retained clean dirty chains are traversed once.</text>
</svg>
